<svg id="Layer_1" height="512" viewBox="0 0 512 512" width="512" xmlns="http://www.w3.org/2000/svg" data-name="Layer 1"><path d="m68 12h30v422h-30z" fill="#d4e1f4"/><g fill="#1ae5be"><path d="m123.427 324h194.325a6 6 0 0 0 0-12h-194.325a6 6 0 0 0 0 12z"/><path d="m123.427 355h194.325a6 6 0 0 0 0-12h-194.325a6 6 0 0 0 0 12z"/><path d="m123.427 386h74.325a6 6 0 0 0 0-12h-74.325a6 6 0 0 0 0 12z"/><path d="m124.984 277h194.509a5.222 5.222 0 0 0 5.507-5.544l.226-54.467a42.442 42.442 0 0 0 -29.744-37.643l-43.482-14.665v-4.1c8-7.253 12.071-17.2 12.4-28.206a12.735 12.735 0 0 0 8.511-11.94 12.591 12.591 0 0 0 -3.545-8.8 67.163 67.163 0 0 0 -1.722-44.93l-1.192-2.91a20.688 20.688 0 0 0 1.548-7.953v-4.478a5.946 5.946 0 0 0 -8.2-5.558c-8.2 3.338-32.349 2.266-52.653-.277a14.26 14.26 0 0 0 -5.051.225 14.714 14.714 0 0 0 -11.396 14.388 2.78 2.78 0 0 1 -2.777 2.777 13.218 13.218 0 0 0 -12.343 8.374l-.337.848a52.562 52.562 0 0 0 0 39.01l.573 1.442a12.691 12.691 0 0 0 5.56 19.782 43.617 43.617 0 0 0 10.624 26.625v5.679l-43.262 14.643a42.921 42.921 0 0 0 -29.763 37.669l.025 54.465c0 3.313 2.67 5.544 5.984 5.544zm172.016-53.989a43.855 43.855 0 0 1 7.477-24.427 30.028 30.028 0 0 1 7.038 11.361 23.406 23.406 0 0 1 1.485 7.8v47.255h-16zm-57 41.989h-36v-68.892a47.595 47.595 0 0 0 36-.006zm0-82.257a35.532 35.532 0 0 1 -36 0v-14.585a42.577 42.577 0 0 0 18.755 4.478 40.577 40.577 0 0 0 17.245-3.748zm54.571 9.071a55.852 55.852 0 0 0 -9.571 31.2v41.986h-28.668l21.455-39.448a5.845 5.845 0 0 0 -1.429-7.343l-7.05-5.839 5.616-8.259a5.98 5.98 0 0 0 -.435-7.283l-14.7-16.936zm-32.284 9.409-6.015 8.963a6.012 6.012 0 0 0 1.177 7.968l7.333 6.23-12.782 23.422v-58.306zm-2.065-114.569a33.77 33.77 0 0 0 -10.792-10.085 20.654 20.654 0 0 0 8.1-2.625 55.433 55.433 0 0 1 2.692 12.71zm-73.822-10.077.337-.848a1.278 1.278 0 0 1 1.193-.81 14.794 14.794 0 0 0 14.778-14.777 2.8 2.8 0 0 1 2.135-2.705 2.454 2.454 0 0 1 .826 0c25.966 3.252 41.264 2.721 49.839 1.544a8.857 8.857 0 0 1 -8.268 5.706 5.992 5.992 0 0 0 -4.859 9.509 6 6 0 0 0 -4.669 4.41c-1.45 5.706-11.934 6.321-16.375 6.321-9.184 0-14.573-1.767-16.02-5.254l-.027-.071a6 6 0 0 0 -8.989-2.75c-5 3.446-10.083 7.773-12.79 14.35a40.708 40.708 0 0 1 2.889-14.625zm1.115 44.423h-1.775c-.363 0-.658-.137-.658-.5s.3-.5.658-.5h1.775a6.626 6.626 0 0 0 6.485-6.223v-11.918c0-4.732 1.093-8.055 4.718-11.475 7.062 6.542 18.393 6.542 22.739 6.542 7.116 0 18.534-1.247 24.61-8.377 4.741 3.613 6.933 7.724 6.933 13.31v11.918c0 3.313 2.22 6.223 5.534 6.223h1.775c.363 0 .658.137.658.5s-.295.5-.658.5h-1.775c-3.314 0-5.534 2.779-5.534 6.093v4.033a29.5 29.5 0 1 1 -59 0v-4.033c0-3.314-3.171-6.093-6.485-6.093zm4.485 126.923-12.576-23.539 7.526-6.23a6.014 6.014 0 0 0 1.2-7.968l-6.219-8.953 10.069-11.728zm-7.226-68.04-14.774 16.947a6 6 0 0 0 -.445 7.309l5.616 8.288-7.05 5.9a5.693 5.693 0 0 0 -1.429 7.229l21.452 39.444h-28.144v-41.989a55.9 55.9 0 0 0 -9.729-31.319zm-53.774 37.865a21.345 21.345 0 0 1 1-5.574 30.962 30.962 0 0 1 8.3-13.811 43.922 43.922 0 0 1 7.7 24.648v41.989h-17z"/><path d="m399.724 413.711-28.964 27.695-13.91-13.906a6 6 0 1 0 -8.486 8.485l18.059 18.059a6 6 0 0 0 8.389.094l33.2-31.749a6 6 0 1 0 -8.293-8.674z"/></g><path d="m68.145 440h41.855v28.619a6.607 6.607 0 0 0 6.31 6.381h205.69v-12h-200v-23h191v-12h-239v-410h218v71.223c0 3.314 3.147 5.777 6.461 5.777h73.539v273h12v-261h24v272h12v-278.374a5.415 5.415 0 0 0 -5.667-5.626h-30.333v-5.931a6.241 6.241 0 0 0 -2.054-4.309l-79.196-76.839a6.518 6.518 0 0 0 -4.289-1.921h-230.316a6.534 6.534 0 0 0 -6.145 6.46v421.694a6 6 0 0 0 6.145 5.846zm235.855-413.373 58.883 56.373h-58.883z" fill="#0635c9"/><path d="m99 40.381a6 6 0 0 0 -12 0v3.6a6 6 0 1 0 12 0z" fill="#0635c9"/><path d="m93 58.062a6 6 0 0 0 -6 6v110.506a6 6 0 0 0 12 0v-110.506a6 6 0 0 0 -6-6z" fill="#0635c9"/><path d="m378.239 362.306a71.617 71.617 0 1 0 71.616 71.617 71.7 71.7 0 0 0 -71.616-71.617zm0 131.234a59.617 59.617 0 1 1 59.616-59.617 59.685 59.685 0 0 1 -59.616 59.617z" fill="#1ae5be"/></svg>